<svg xmlns="http://www.w3.org/2000/svg" viewBox="0 0 3003 512">
<defs>
  <linearGradient id="bg" x1="0" y1="0" x2="0" y2="1">
    <stop offset="0" stop-color="#141B2E"/><stop offset="1" stop-color="#05070E"/>
  </linearGradient>
  <radialGradient id="haze" cx="0.5" cy="0.46" r="0.62">
    <stop offset="0" stop-color="#00E5FF" stop-opacity="0.10"/>
    <stop offset="1" stop-color="#00E5FF" stop-opacity="0"/>
  </radialGradient>
</defs><defs><linearGradient id="loom" gradientUnits="userSpaceOnUse" x1="1350.1" y1="0" x2="2383.5" y2="0">
      <stop offset="0" stop-color="#00E5FF"/><stop offset="1" stop-color="#FF2A93"/>
    </linearGradient></defs>

<g transform="translate(-4.62,-14.77) scale(0.5288)"><g><line x1="272" y1="200" x2="272" y2="824" stroke="#00E5FF" stroke-width="110" stroke-opacity="0.11" stroke-linecap="butt"/><line x1="392" y1="200" x2="392" y2="824" stroke="#00E5FF" stroke-width="110" stroke-opacity="0.11" stroke-linecap="butt"/><line x1="512" y1="200" x2="512" y2="824" stroke="#00E5FF" stroke-width="110" stroke-opacity="0.11" stroke-linecap="butt"/><line x1="632" y1="200" x2="632" y2="824" stroke="#00E5FF" stroke-width="110" stroke-opacity="0.11" stroke-linecap="butt"/><line x1="752" y1="200" x2="752" y2="824" stroke="#00E5FF" stroke-width="110" stroke-opacity="0.11" stroke-linecap="butt"/><line x1="160" y1="512" x2="864" y2="512" stroke="#FF2A93" stroke-width="180" stroke-opacity="0.1" stroke-linecap="butt"/><line x1="160" y1="512" x2="864" y2="512" stroke="#FF2A93" stroke-width="122" stroke-opacity="0.17" stroke-linecap="butt"/><line x1="272" y1="200" x2="272" y2="449.0" stroke="#00E5FF" stroke-width="44" stroke-opacity="1.0" stroke-linecap="butt"/><line x1="272" y1="575.0" x2="272" y2="824" stroke="#00E5FF" stroke-width="44" stroke-opacity="1.0" stroke-linecap="butt"/><line x1="392" y1="200" x2="392" y2="824" stroke="#00E5FF" stroke-width="44" stroke-opacity="1.0" stroke-linecap="butt"/><line x1="512" y1="200" x2="512" y2="449.0" stroke="#00E5FF" stroke-width="44" stroke-opacity="1.0" stroke-linecap="butt"/><line x1="512" y1="575.0" x2="512" y2="824" stroke="#00E5FF" stroke-width="44" stroke-opacity="1.0" stroke-linecap="butt"/><line x1="632" y1="200" x2="632" y2="824" stroke="#00E5FF" stroke-width="44" stroke-opacity="1.0" stroke-linecap="butt"/><line x1="752" y1="200" x2="752" y2="449.0" stroke="#00E5FF" stroke-width="44" stroke-opacity="1.0" stroke-linecap="butt"/><line x1="752" y1="575.0" x2="752" y2="824" stroke="#00E5FF" stroke-width="44" stroke-opacity="1.0" stroke-linecap="butt"/><line x1="160" y1="512" x2="345.0" y2="512" stroke="#FF2A93" stroke-width="76" stroke-opacity="1.0" stroke-linecap="butt"/><line x1="439.0" y1="512" x2="585.0" y2="512" stroke="#FF2A93" stroke-width="76" stroke-opacity="1.0" stroke-linecap="butt"/><line x1="679.0" y1="512" x2="864" y2="512" stroke="#FF2A93" stroke-width="76" stroke-opacity="1.0" stroke-linecap="butt"/></g></g>
<g transform="translate(540.3,361.0)">
      <path d="M58.333333333333336 0.0Q46.66666666666667 0.0 37.1875 -5.6875Q27.708333333333336 -11.375 22.020833333333336 -20.854166666666668Q16.333333333333336 -30.333333333333336 16.333333333333336 -42.0V-168.0Q16.333333333333336 -179.66666666666669 22.020833333333336 -189.14583333333334Q27.708333333333336 -198.625 37.1875 -204.3125Q46.66666666666667 -210.0 58.333333333333336 -210.0H225.75000000000003V-167.70833333333334H68.25Q63.583333333333336 -167.70833333333334 60.958333333333336 -165.22916666666669Q58.333333333333336 -162.75 58.333333333333336 -157.79166666666669V-52.208333333333336Q58.333333333333336 -47.54166666666667 60.958333333333336 -44.91666666666667Q63.583333333333336 -42.29166666666667 68.25 -42.29166666666667H225.75000000000003V0.0Z M267.75 0.0V-210.0H309.4583333333333V0.0Z M353.5 0.0V-209.70833333333334H521.2083333333334Q532.875 -209.70833333333334 542.3541666666667 -204.02083333333334Q551.8333333333334 -198.33333333333334 557.6666666666667 -188.70833333333334Q563.5 -179.08333333333334 563.5 -167.70833333333334V-112.29166666666667Q563.5 -100.91666666666667 557.6666666666667 -91.4375Q551.8333333333334 -81.95833333333334 542.3541666666667 -76.27083333333334Q532.875 -70.58333333333334 521.2083333333334 -70.58333333333334L395.5 -70.29166666666667V0.0ZM397.25 -112.87500000000001H519.1666666666667Q520.0416666666667 -112.87500000000001 520.4791666666667 -113.31250000000001Q520.9166666666667 -113.75000000000001 520.9166666666667 -114.33333333333334V-165.95833333333334Q520.9166666666667 -166.83333333333334 520.4791666666667 -167.27083333333334Q520.0416666666667 -167.70833333333334 519.1666666666667 -167.70833333333334H397.25Q396.375 -167.70833333333334 395.9375 -167.27083333333334Q395.5 -166.83333333333334 395.5 -165.95833333333334V-114.33333333333334Q395.5 -113.75000000000001 395.9375 -113.31250000000001Q396.375 -112.87500000000001 397.25 -112.87500000000001Z M602.0 0.0V-210.0H644.0V-126.29166666666667H774.375V-210.0H816.375V0.0H774.375V-83.70833333333334H644.0V0.0Z M868.0 0.0V-210.0H1061.6666666666667V-167.70833333333334H910.5833333333334V-126.29166666666667H1032.2083333333335V-83.70833333333334H910.5833333333334V-42.29166666666667H1061.6666666666667V0.0Z M1273.4166666666667 0.0 1211.2916666666667 -74.08333333333334H1266.4166666666667L1317.75 -13.125V0.0ZM1108.3333333333333 0.0V-209.70833333333334H1276.0416666666667Q1287.7083333333333 -209.70833333333334 1297.1875 -204.02083333333334Q1306.6666666666667 -198.33333333333334 1312.5 -188.70833333333334Q1318.3333333333333 -179.08333333333334 1318.3333333333333 -167.70833333333334V-112.29166666666667Q1318.3333333333333 -100.91666666666667 1312.5 -91.4375Q1306.6666666666667 -81.95833333333334 1297.1875 -76.27083333333334Q1287.7083333333333 -70.58333333333334 1276.0416666666667 -70.58333333333334L1150.3333333333333 -70.29166666666667V0.0ZM1152.0833333333333 -112.87500000000001H1274.0Q1274.875 -112.87500000000001 1275.3125 -113.31250000000001Q1275.75 -113.75000000000001 1275.75 -114.33333333333334V-165.95833333333334Q1275.75 -166.83333333333334 1275.3125 -167.27083333333334Q1274.875 -167.70833333333334 1274.0 -167.70833333333334H1152.0833333333333Q1151.2083333333333 -167.70833333333334 1150.7708333333333 -167.27083333333334Q1150.3333333333333 -166.83333333333334 1150.3333333333333 -165.95833333333334V-114.33333333333334Q1150.3333333333333 -113.75000000000001 1150.7708333333333 -113.31250000000001Q1151.2083333333333 -112.87500000000001 1152.0833333333333 -112.87500000000001Z" fill="#E9F2FF"/>
      <path d="M16.625 0.0V-210.29166666666669H58.62500000000001V-42.29166666666667H226.62500000000003V0.0Z M302.45833333333337 0.0Q290.7916666666667 0.0 281.3125 -5.6875Q271.83333333333337 -11.375 266.14583333333337 -20.854166666666668Q260.45833333333337 -30.333333333333336 260.45833333333337 -42.0V-168.0Q260.45833333333337 -179.66666666666669 266.14583333333337 -189.14583333333334Q271.83333333333337 -198.625 281.3125 -204.3125Q290.7916666666667 -210.0 302.45833333333337 -210.0H428.45833333333337Q439.83333333333337 -210.0 449.3125 -204.3125Q458.7916666666667 -198.625 464.625 -189.14583333333334Q470.45833333333337 -179.66666666666669 470.45833333333337 -168.0V-42.0Q470.45833333333337 -30.333333333333336 464.625 -20.854166666666668Q458.7916666666667 -11.375 449.3125 -5.6875Q439.83333333333337 0.0 428.45833333333337 0.0ZM304.20833333333337 -42.29166666666667H426.125Q427.0 -42.29166666666667 427.4375 -42.72916666666667Q427.875 -43.16666666666667 427.875 -44.04166666666667V-165.95833333333334Q427.875 -166.83333333333334 427.4375 -167.27083333333334Q427.0 -167.70833333333334 426.125 -167.70833333333334H304.20833333333337Q303.33333333333337 -167.70833333333334 302.89583333333337 -167.27083333333334Q302.45833333333337 -166.83333333333334 302.45833333333337 -165.95833333333334V-44.04166666666667Q302.45833333333337 -43.16666666666667 302.89583333333337 -42.72916666666667Q303.33333333333337 -42.29166666666667 304.20833333333337 -42.29166666666667Z M561.4583333333334 0.0Q549.7916666666667 0.0 540.3125 -5.6875Q530.8333333333334 -11.375 525.1458333333334 -20.854166666666668Q519.4583333333334 -30.333333333333336 519.4583333333334 -42.0V-168.0Q519.4583333333334 -179.66666666666669 525.1458333333334 -189.14583333333334Q530.8333333333334 -198.625 540.3125 -204.3125Q549.7916666666667 -210.0 561.4583333333334 -210.0H687.4583333333334Q698.8333333333334 -210.0 708.3125 -204.3125Q717.7916666666667 -198.625 723.625 -189.14583333333334Q729.4583333333334 -179.66666666666669 729.4583333333334 -168.0V-42.0Q729.4583333333334 -30.333333333333336 723.625 -20.854166666666668Q717.7916666666667 -11.375 708.3125 -5.6875Q698.8333333333334 0.0 687.4583333333334 0.0ZM563.2083333333334 -42.29166666666667H685.125Q686.0 -42.29166666666667 686.4375 -42.72916666666667Q686.875 -43.16666666666667 686.875 -44.04166666666667V-165.95833333333334Q686.875 -166.83333333333334 686.4375 -167.27083333333334Q686.0 -167.70833333333334 685.125 -167.70833333333334H563.2083333333334Q562.3333333333334 -167.70833333333334 561.8958333333334 -167.27083333333334Q561.4583333333334 -166.83333333333334 561.4583333333334 -165.95833333333334V-44.04166666666667Q561.4583333333334 -43.16666666666667 561.8958333333334 -42.72916666666667Q562.3333333333334 -42.29166666666667 563.2083333333334 -42.29166666666667Z M779.0416666666667 0.0V-210.0H823.6666666666667L897.1666666666667 -122.20833333333334L970.375 -210.0H1015.2916666666667V0.0H973.0V-147.29166666666669L897.1666666666667 -56.583333333333336L821.0416666666667 -147.0V0.0Z" fill="url(#loom)" transform="translate(1350.12,0)"/>
    </g>
</svg>